<svg width="1704" height="641" viewBox="0 0 1704 641" fill="none" xmlns="http://www.w3.org/2000/svg">
<g clip-path="url(#clip0_40_145)">
<path d="M532.38 259.424C532.38 232.444 554.463 211.394 583.661 211.394C612.859 211.394 634.35 232.444 634.35 259.424C634.35 286.404 612.859 308.492 583.661 308.492C554.463 308.492 532.38 286.849 532.38 259.424ZM537.715 610.017V338.141H628.866V610.017H537.715Z" fill="#849CC2"/>
<path d="M685.039 610.017V338.141H771.891V372.681C789.084 347.332 817.689 332.211 854.445 332.211C913.731 332.211 948.857 371.051 948.857 450.805V609.869H860.374V468.594C860.374 425.456 845.256 411.966 819.912 411.966C791.307 411.966 773.521 435.684 773.521 469.187V610.017H685.039Z" fill="#849CC2"/>
<path d="M1183.92 392.101H1385.05V412.114C1385.05 537.823 1315.53 615.947 1194.15 615.947C1072.76 615.947 990.356 537.23 990.356 419.674C990.356 302.118 1072.91 223.401 1190.44 223.401C1272.4 223.401 1334.36 261.203 1357.63 318.276L1273 362.008C1260.1 330.729 1230.46 310.716 1189.41 310.716C1127.9 310.716 1087.44 355.485 1087.44 419.674C1087.44 483.863 1123.6 529.225 1195.33 529.225C1251.36 529.225 1277.3 502.838 1288.12 467.705H1184.07V392.249L1183.92 392.101Z" fill="#BFDA71"/>
<path d="M1411.28 474.079C1411.28 388.84 1475.46 332.211 1558.01 332.211C1640.57 332.211 1704.15 388.84 1704.15 474.079C1704.15 559.318 1641.6 615.947 1558.01 615.947C1474.42 615.947 1411.28 559.318 1411.28 474.079ZM1615.07 474.079C1615.07 437.463 1592.99 412.559 1557.86 412.559C1522.74 412.559 1500.21 437.315 1500.21 474.079C1500.21 510.843 1523.92 535.6 1557.86 535.6C1591.8 535.6 1615.07 510.843 1615.07 474.079Z" fill="#BFDA71"/>
<path d="M398.544 45.43H32.9032V165.506H172.964L105.972 568.725L221.43 568.281C231.508 372.304 238.178 301.296 238.178 279.208C238.178 214.476 238.178 214.476 238.178 279.208C238.178 451.614 238.77 391.724 238.77 568.725L353.339 572.283L302.798 165.506H443.6V90.3474C443.6 65.5909 423.443 45.43 398.692 45.43H398.544Z" fill="#BFDA71"/>
<path d="M105.676 532.703C85.074 523.512 59.285 523.363 38.6835 532.554C18.0819 541.745 3.26068 559.534 0.296425 579.102C-3.1665e-07 581.474 -0.296425 583.994 0.741063 586.218C1.63034 588.442 3.40889 590.221 5.48386 592C24.3069 608.01 53.3565 611.123 80.0348 611.716C106.12 612.309 132.65 611.123 157.846 604.897C183.043 598.67 206.608 586.515 221.726 568.429" fill="#849CC2"/>
<path d="M357.192 529.59C378.239 520.399 404.769 520.25 425.815 529.441C446.861 538.632 462.127 556.421 465.091 575.989C465.387 578.361 465.684 580.881 464.646 583.105C463.757 585.329 461.83 587.108 459.904 588.887C440.636 604.897 410.993 608.01 383.574 608.603C356.748 609.196 329.625 608.01 303.984 601.784C278.343 595.557 254.185 587.108 238.77 569.022" fill="#849CC2"/>
<path d="M50.3923 528.552C58.6922 533.74 64.7689 529.886 72.0313 530.034C81.3687 530.034 87.5936 538.632 89.6686 546.786L87.4454 547.527C85.9633 543.673 84.4812 539.966 81.8133 537.298C73.9581 528.7 62.6939 537.298 53.2083 533.74C51.1333 532.851 48.7619 533.296 46.687 529.59L50.2441 528.552H50.3923Z" fill="white"/>
<path d="M60.9154 526.477C60.1743 527.811 65.2135 526.773 68.1778 528.255C77.8116 531.813 80.3312 544.859 78.2562 553.753L76.3295 553.308C77.9598 545.451 75.7366 533.592 67.2885 530.775C65.0653 529.738 62.9903 530.479 60.3225 529.738C58.9886 529.441 58.0993 527.811 57.9511 526.921L60.9154 526.477Z" fill="white"/>
<path d="M31.2728 536.409C30.68 537.15 35.1264 535.667 38.2388 535.816C48.9101 535.074 56.3208 544.562 56.1726 554.642L53.9494 554.939C53.9494 543.969 44.7602 536.26 34.3853 539.818C33.1996 540.115 30.2354 541.152 28.3086 538.336L31.4211 536.409H31.2728Z" fill="white"/>
<path d="M37.646 532.999C49.6512 532.554 54.0976 549.009 48.3173 558.497L46.8352 557.756C50.3923 550.788 49.6512 541.597 43.1299 537.002C40.0174 534.333 38.2388 537.446 35.1264 534.333L37.7942 532.999H37.646Z" fill="white"/>
<path d="M11.857 553.012C16.007 553.901 24.7515 552.715 29.0497 556.125C34.9782 559.534 36.3121 566.798 36.0157 573.025H34.6817C35.1264 563.537 29.1979 555.828 19.7123 556.57C16.5998 556.57 14.2284 557.756 9.63382 555.977L11.857 553.012Z" fill="white"/>
<path d="M16.007 548.268C17.6373 549.602 21.0462 550.343 23.8622 551.529C33.7925 555.384 32.3103 569.467 27.1229 576.582L26.6783 576.286C30.8282 569.467 32.1621 557.014 23.1212 553.901C20.3051 552.715 17.4891 552.864 14.0802 550.64L16.007 548.416V548.268Z" fill="white"/>
<path d="M419.738 527.217C417.663 530.923 415.292 530.627 413.217 531.368C409.215 532.258 404.176 532.999 400.322 531.368C389.947 527.959 381.499 535.371 378.98 545.155L376.756 544.414C379.128 533.444 389.503 524.697 400.915 528.255C405.361 529.886 412.92 528.552 416.033 526.18L419.59 527.217H419.738Z" fill="white"/>
<path d="M408.622 524.698C408.622 527.069 405.51 528.107 403.583 527.959C392.319 527.662 388.465 542.042 390.392 551.085L388.465 551.529C386.39 542.487 388.762 529.59 398.544 526.032C401.508 524.549 406.547 525.587 405.806 524.253L408.77 524.698H408.622Z" fill="white"/>
<path d="M438.561 536.112C436.486 538.929 433.67 537.743 432.484 537.595C421.961 534.037 412.92 541.597 412.92 552.715L410.697 552.419C410.697 542.338 417.811 532.851 428.631 533.592C431.743 533.592 436.19 534.926 435.597 534.185L438.709 536.112H438.561Z" fill="white"/>
<path d="M431.595 532.11C428.927 534.778 427.741 532.999 426.704 533.592C423.74 533.74 419.886 537.594 419.145 540.559C416.774 545.303 417.663 550.64 419.886 555.532L418.404 556.273C414.254 549.009 414.847 538.336 422.109 532.999C423.443 531.22 429.52 530.479 429.075 530.924L431.743 532.258L431.595 532.11Z" fill="white"/>
<path d="M456.495 553.753C451.9 555.532 449.529 554.198 446.416 554.346C436.931 553.605 431.002 561.462 431.447 570.801H430.113C428.779 560.72 435.745 550.936 446.416 551.233C449.232 551.233 453.234 551.233 454.272 550.788L456.495 553.753Z" fill="white"/>
<path d="M452.197 548.268C448.788 550.492 445.972 550.492 443.156 551.529C434.115 554.642 435.449 567.095 439.598 573.914L439.154 574.21C433.966 567.095 432.484 553.16 442.415 549.157C445.231 547.971 448.639 547.23 450.27 545.896L452.197 548.12V548.268Z" fill="white"/>
<path d="M465.055 35.7948L147.719 19.2162L146.367 45.1233L463.702 61.7019L465.055 35.7948Z" fill="#849CC2"/>
<path d="M389.647 -21.0382L231.423 -29.3043L228.648 23.8422L386.871 32.1084L389.647 -21.0382Z" fill="#849CC2"/>
<path d="M174.743 86.9377C196.382 85.4553 214.315 101.614 231.508 107.84C246.033 109.619 257.742 111.842 275.379 107.099C287.236 102.948 298.204 94.9428 309.171 85.9C298.5 123.109 256.26 165.803 215.501 140.008C194.307 126.222 189.267 107.247 174.298 87.9754L174.743 87.0859V86.9377Z" fill="white"/>
<path d="M228.692 22.897L386.983 31.1986" stroke="white" stroke-miterlimit="10"/>
<mask id="mask0_40_145" style="mask-type:luminance" maskUnits="userSpaceOnUse" x="111" y="518" width="113" height="34">
<path d="M111.901 536.705L114.272 518.62L223.356 533.147L222.319 551.381L111.901 536.705Z" fill="white"/>
</mask>
<g mask="url(#mask0_40_145)">
<path d="M113.679 522.029L222.763 549.009" stroke="white" stroke-miterlimit="10"/>
</g>
<mask id="mask1_40_145" style="mask-type:luminance" maskUnits="userSpaceOnUse" x="237" y="518" width="113" height="35">
<path d="M349.633 537.446L347.262 518.768L237.733 533.147L238.77 552.271L349.633 537.446Z" fill="white"/>
</mask>
<g mask="url(#mask1_40_145)">
<path d="M347.41 522.77L238.178 549.899" stroke="white" stroke-miterlimit="10"/>
</g>
</g>
<defs>
<clipPath id="clip0_40_145">
<rect width="1704" height="641" fill="white"/>
</clipPath>
</defs>
</svg>
