<svg width="39" height="31" viewBox="0 0 39 31" fill="none" xmlns="http://www.w3.org/2000/svg">
<path d="M29.8876 24.375C28.8501 25.925 27.7501 27.4375 26.0751 27.4625C24.4001 27.5 23.8626 26.475 21.9626 26.475C20.0501 26.475 19.4626 27.4375 17.8751 27.5C16.2376 27.5625 15.0001 25.85 13.9501 24.3375C11.8126 21.25 10.1751 15.5625 12.3751 11.7375C13.4626 9.8375 15.4126 8.6375 17.5251 8.6C19.1251 8.575 20.6501 9.6875 21.6376 9.6875C22.6126 9.6875 24.4626 8.35 26.4001 8.55C27.2126 8.5875 29.4876 8.875 30.9501 11.025C30.8376 11.1 28.2376 12.625 28.2626 15.7875C28.3001 19.5625 31.5751 20.825 31.6126 20.8375C31.5751 20.925 31.0876 22.6375 29.8876 24.375ZM22.7501 4.375C23.6626 3.3375 25.1751 2.55 26.4251 2.5C26.5876 3.9625 26.0001 5.4375 25.1251 6.4875C24.2626 7.55 22.8376 8.375 21.4376 8.2625C21.2501 6.825 21.9501 5.325 22.7501 4.375Z" fill="black"/>
</svg>
