<svg width="25" height="21" viewBox="0 0 25 21" fill="none" xmlns="http://www.w3.org/2000/svg">
<g clip-path="url(#clip0_411_10376)">
<path d="M22.25 19.5H2.75C1.505 19.5 0.5 18.495 0.5 17.25V3.75C0.5 2.505 1.505 1.5 2.75 1.5H22.25C23.495 1.5 24.5 2.505 24.5 3.75V17.25C24.5 18.495 23.495 19.5 22.25 19.5ZM2.75 3C2.33 3 2 3.33 2 3.75V17.25C2 17.67 2.33 18 2.75 18H22.25C22.67 18 23 17.67 23 17.25V3.75C23 3.33 22.67 3 22.25 3H2.75Z" fill="black"/>
<path d="M12.5001 13.4399C11.4501 13.4399 10.4901 13.0199 9.77013 12.2549L1.89513 3.88493C1.61013 3.58493 1.62513 3.10493 1.92513 2.81993C2.22513 2.53493 2.70513 2.54993 2.99013 2.84993L10.8651 11.2199C11.7201 12.1349 13.2801 12.1349 14.1351 11.2199L22.0101 2.86493C22.2951 2.56493 22.7751 2.54993 23.0751 2.83493C23.3751 3.11993 23.3901 3.59993 23.1051 3.89993L15.2301 12.2699C14.5101 13.0349 13.5501 13.4549 12.5001 13.4549V13.4399Z" fill="black"/>
</g>
<defs>
<clipPath id="clip0_411_10376">
<rect width="24" height="21" fill="white" transform="translate(0.5)"/>
</clipPath>
</defs>
</svg>
